:SAMPLES-PER-SECOND 30
:FULLY-SPECIFIED
:DEGREES
524
root  -14.6723 36.3199 11.1635 177.985 45.7249 -173.986
RightUpLeg  -16.4925 3.36373 -10.4055
RightLeg  36.6697 -1.0008 -1.05865
RightFoot  -9.57729 -0.393292 21.4423
RightToes  -5.8209e-011 0 -3.6325e-017
Spine  9.35321 -0.357541 -6.97563
Spine1  27.3227 -3.86426 6.23516
HEad  -18.7307 42.1504 -14.8477
LeftShoulder1  1.28949 -1.70734 -18.1433
LeftArm  11.5954 1.26556 -65.214
LeftForeArm  13.5409 -67.8785 -28.0971
LeftHand  -2.31498 -2.17238 34.8095
RightShoulder  0.985329 0.762901 16.4829
RightArm  -24.8535 -9.71696 55.8733
RightForeArm  -7.57778 45.1739 11.74
RightHand  -3.31893 7.00316 -30.6733
LeftUpLeg  -14.1143 -9.24549 18.1677
LeftLeg  51.6163 6.60944 9.33908
LeftFoot  -12.0146 -0.0622401 -23.2798
LeftToes  -3.91115e-011 -2.2622e-010 9.51032e-012
525
root  -15.0412 37.5724 10.8295 178.626 46.1856 -175.926
RightUpLeg  -14.6354 3.05213 -12.2375
RightLeg  27.6095 -1.94237 -1.26437
RightFoot  -1.71627 -1.77852 20.7983
RightToes  -5.8209e-011 0 -3.6325e-017
Spine  8.39477 -0.662064 -8.54684
Spine1  27.0001 -3.80672 4.86298
HEad  -17.9123 43.2585 -14.7887
LeftShoulder1  1.21959 -1.51125 -17.686
LeftArm  14.0897 0.8803 -67.3262
LeftForeArm  17.2221 -70.063 -31.7825
LeftHand  -2.17752 -2.12482 33.0634
RightShoulder  0.903754 0.559255 15.5587
RightArm  -31.2338 -12.9399 55.2107
RightForeArm  -10.215 42.8418 11.0148
RightHand  -3.33871 6.81064 -31.3011
LeftUpLeg  -11.9696 -5.31858 16.3054
LeftLeg  42.8588 6.67375 7.04196
LeftFoot  -8.33006 0.650654 -23.1483
LeftToes  -3.91115e-011 -2.2622e-010 9.51032e-012
526
root  -15.5429 38.988 10.524 179.845 44.7661 -177.568
RightUpLeg  -12.4429 -1.47522 -13.6674
RightLeg  16.8656 -3.5907 -1.77095
RightFoot  11.2529 -4.23495 21.2049
RightToes  -5.8209e-011 0 -3.6325e-017
Spine  7.92461 -1.54404 -9.29526
Spine1  26.1587 -4.18977 3.7274
HEad  -17.4659 43.3989 -14.0604
LeftShoulder1  1.1547 -1.44172 -16.6276
LeftArm  16.4227 0.659663 -68.3125
LeftForeArm  21.0686 -72.058 -36.1928
LeftHand  -2.09442 -2.09137 31.9942
RightShoulder  0.857724 0.580803 14.1948
RightArm  -36.4964 -14.5793 56.5284
RightForeArm  -11.7511 43.0687 11.2005
RightHand  -3.54057 6.91939 -32.7943
LeftUpLeg  -11.5896 -1.82489 14.6853
LeftLeg  33.7752 5.13927 4.05276
LeftFoot  -0.670896 2.03019 -21.4473
LeftToes  -3.91115e-011 -2.2622e-010 9.51032e-012
527
root  -16.0326 40.1959 10.1939 -178.489 43.5325 -178.715
RightUpLeg  -10.5828 -10.5242 -14.0478
RightLeg  7.25913 -6.42321 -1.80292
RightFoot  25.8896 -7.38107 22.2864
RightToes  -5.8209e-011 0 -3.6325e-017
Spine  6.78256 -2.17112 -8.52338
Spine1  25.2981 -3.64332 1.52414
HEad  -15.584 42.2062 -11.1256
LeftShoulder1  1.0468 -1.16719 -15.6068
LeftArm  18.6746 0.428114 -68.3126
LeftForeArm  25.5062 -73.8393 -41.3856
LeftHand  -1.89441 -1.81486 30.1265
RightShoulder  0.820026 0.666487 12.7075
RightArm  -38.6829 -13.8031 57.296
RightForeArm  -13.3818 43.8674 11.603
RightHand  -3.84408 7.19183 -34.7143
LeftUpLeg  -12.3026 -1.24307 13.2647
LeftLeg  26.9511 3.57266 2.29482
LeftFoot  8.68963 3.78845 -21.4491
LeftToes  -3.91115e-011 -2.2622e-010 9.51032e-012
528
root  -16.4507 41.0307 9.86116 -177.265 44.1013 -179.486
RightUpLeg  -9.47311 -12.9399 -15.0117
RightLeg  3.31851 -15.8656 -0.268008
RightFoot  35.1886 -8.94763 21.2464
RightToes  -5.8209e-011 0 -3.6325e-017
Spine  5.07551 -1.91072 -6.88179
Spine1  24.5009 -1.61651 -1.96221
HEad  -12.022 40.4704 -6.36651
LeftShoulder1  0.938497 -0.781237 -15.052
LeftArm  20.2477 0.644653 -67.5712
LeftForeArm  30.8144 -75.5009 -48.1152
LeftHand  -1.61814 -1.2875 27.8869
RightShoulder  0.671924 0.229586 10.8229
RightArm  -37.822 -9.54778 57.3677
RightForeArm  -14.5104 44.3742 11.8686
RightHand  -3.97737 7.19265 -35.8334
LeftUpLeg  -12.5762 -4.11076 12.4321
LeftLeg  22.3571 3.14981 1.74863
LeftFoot  16.1492 5.44018 -22.4303
LeftToes  -3.91115e-011 -2.2622e-010 9.51032e-012
529
root  -16.8864 41.51 9.55508 -177.022 46.6282 -179.587
RightUpLeg  -9.65668 -12.9687 -14.5742
RightLeg  7.49164 -16.8584 -1.47893
RightFoot  35.648 -8.06002 18.9818
RightToes  -5.8209e-011 0 -3.6325e-017
Spine  4.46013 -0.930666 -4.68975
Spine1  23.1796 1.17967 -5.87796
HEad  -7.92426 39.1953 -1.44618
LeftShoulder1  0.856658 -0.476404 -14.6306
LeftArm  20.4894 2.10261 -66.1902
LeftForeArm  39.0437 -77.1282 -57.9291
LeftHand  -1.44191 -0.871206 26.5597
RightShoulder  0.383193 -1.03159 7.95277
RightArm  -34.3796 -1.44515 58.573
RightForeArm  -12.4937 45.809 12.3388
RightHand  -3.86475 7.03932 -35.284
LeftUpLeg  -11.2719 -7.98886 12.1602
LeftLeg  19.2316 3.05103 1.53953
LeftFoot  19.6072 6.03255 -22.0127
LeftToes  -3.91115e-011 -2.2622e-010 9.51032e-012
530
root  -17.3278 41.5667 9.3112 -177.585 50.2174 -179.315
RightUpLeg  -10.0765 -9.65856 -13.6111
RightLeg  15.8067 -10.9841 -3.84926
RightFoot  30.8552 -6.44109 17.1545
RightToes  -5.8209e-011 0 -3.6325e-017
Spine  5.74075 0.0739706 -2.49211
Spine1  20.368 3.7513 -10.2579
HEad  -4.14094 38.6247 2.69506
LeftShoulder1  0.775784 -0.231009 -13.7967
LeftArm  19.6373 5.26268 -64.3026
LeftForeArm  52.6431 -78.484 -72.2598
LeftHand  -1.40071 -0.765216 26.2443
RightShoulder  0.110237 -2.56248 3.76638
RightArm  -27.5416 8.86647 61.4172
RightForeArm  -6.94815 49.7817 13.818
RightHand  -3.52346 6.82984 -32.8618
LeftUpLeg  -9.04706 -9.22547 11.6705
LeftLeg  18.225 2.52835 1.47881
LeftFoot  18.2393 5.32809 -20.4046
LeftToes  -3.91115e-011 -2.2622e-010 9.51032e-012
